<svg width="528" height="467" viewBox="0 0 528 467" fill="none" xmlns="http://www.w3.org/2000/svg">
<g opacity="0.5">
<path d="M319.252 206.481C319.252 251.487 313.998 292.21 305.516 321.663C301.274 336.393 296.234 348.271 290.664 356.453C285.08 364.654 279.055 369.015 272.865 369.015C266.675 369.015 260.65 364.654 255.066 356.453C249.496 348.271 244.456 336.393 240.214 321.663C231.732 292.21 226.478 251.487 226.478 206.481C226.478 161.476 231.732 120.753 240.214 91.3002C244.456 76.5698 249.496 64.692 255.066 56.5102C260.65 48.3087 266.675 43.9484 272.865 43.9484C279.055 43.9484 285.08 48.3087 290.664 56.5102C296.234 64.692 301.274 76.5698 305.516 91.3002C313.998 120.753 319.252 161.476 319.252 206.481Z" stroke="white" stroke-width="1.17613"/>
<path d="M272.349 253.385C227.343 253.385 186.62 248.131 157.168 239.649C142.437 235.407 130.559 230.367 122.378 224.797C114.176 219.213 109.816 213.188 109.816 206.998C109.816 200.809 114.176 194.784 122.378 189.2C130.559 183.629 142.437 178.589 157.168 174.347C186.62 165.865 227.343 160.611 272.349 160.611C317.355 160.611 358.078 165.865 387.53 174.347C402.261 178.589 414.138 183.629 422.32 189.2C430.522 194.784 434.882 200.809 434.882 206.998C434.882 213.188 430.522 219.213 422.32 224.797C414.138 230.367 402.261 235.407 387.53 239.649C358.078 248.131 317.355 253.385 272.349 253.385Z" stroke="white" stroke-width="1.17613"/>
<path d="M272.349 322.557C227.413 322.557 186.755 309.529 157.347 288.497C127.937 267.463 109.816 238.459 109.816 206.482C109.816 174.506 127.937 145.501 157.347 124.468C186.755 103.435 227.413 90.4077 272.349 90.4077C317.285 90.4077 357.942 103.435 387.351 124.468C416.76 145.501 434.882 174.506 434.882 206.482C434.882 238.459 416.76 267.463 387.351 288.497C357.942 309.529 317.285 322.557 272.349 322.557Z" stroke="white" stroke-width="1.17613"/>
<path d="M156.275 206.482C156.275 161.546 169.302 120.888 190.335 91.4799C211.368 62.0704 240.373 43.9488 272.349 43.9488C304.326 43.9488 333.33 62.0704 354.364 91.4799C375.396 120.888 388.424 161.546 388.424 206.482C388.424 251.418 375.396 292.075 354.364 321.484C333.33 350.893 304.326 369.015 272.349 369.015C240.373 369.015 211.368 350.893 190.335 321.484C169.302 292.075 156.275 251.418 156.275 206.482Z" stroke="white" stroke-width="1.17613"/>
<circle cx="272.112" cy="206.245" r="162.533" stroke="white" stroke-width="1.17613"/>
</g>
<circle cx="272.865" cy="206.999" r="206.411" stroke="white" stroke-width="1.17613" stroke-dasharray="4.13 4.13"/>
<circle cx="366.251" cy="392.625" r="8.2329" fill="#08CA4A" stroke="#F7F8F9" stroke-width="0.784086"/>
<circle cx="411.877" cy="122.467" r="8.2329" fill="#08CA4A" stroke="#F7F8F9" stroke-width="0.784086"/>
<circle cx="150.251" cy="314.625" r="8.12494" fill="#08CA4A" stroke="#F7F8F9"/>
<circle cx="102.251" cy="92.6249" r="8.14662" fill="#08CA4A" stroke="#F7F8F9" stroke-width="0.956652"/>
<g clip-path="url(#clip0_871_7739)">
<path d="M237.137 218.571C237.085 218.491 237.031 218.413 236.899 218.413H236.767C236.635 218.413 236.555 218.493 236.529 218.571L232.037 228.322C231.957 228.506 232.063 228.692 232.275 228.692H233.543C233.781 228.692 233.913 228.56 233.966 228.401L234.679 226.842H239.012L239.726 228.401C239.832 228.613 239.938 228.692 240.148 228.692H241.416C241.628 228.692 241.76 228.507 241.654 228.322L237.135 218.57L237.137 218.571ZM235.341 225.231L236.768 222.059H236.821L238.274 225.231H235.341Z" fill="white"/>
<path d="M250.906 218.571H249.585C249.427 218.571 249.321 218.704 249.321 218.836V224.807H249.294L243.269 218.412H242.899C242.767 218.412 242.635 218.518 242.635 218.676V228.4C242.635 228.533 242.767 228.665 242.899 228.665H244.22C244.379 228.665 244.485 228.533 244.485 228.4V222.191H244.511L250.562 228.823H250.906C251.039 228.823 251.171 228.717 251.171 228.559V218.835C251.197 218.702 251.065 218.57 250.906 218.57V218.571Z" fill="white"/>
<path d="M257.406 218.571C257.354 218.491 257.3 218.413 257.168 218.413H257.036C256.904 218.413 256.824 218.493 256.798 218.571L252.306 228.323C252.226 228.507 252.332 228.693 252.544 228.693H253.812C254.05 228.693 254.182 228.561 254.235 228.402L254.948 226.843H259.282L259.995 228.402C260.101 228.614 260.207 228.693 260.417 228.693H261.685C261.897 228.693 262.029 228.508 261.923 228.323L257.404 218.571H257.406ZM255.61 225.231L257.037 222.059H257.09L258.543 225.231H255.61Z" fill="white"/>
<path d="M269.774 226.102C269.694 226.023 269.536 225.997 269.403 226.102C268.795 226.605 268.056 226.922 267.183 226.922C265.333 226.922 263.933 225.389 263.933 223.592C263.933 221.794 265.307 220.209 267.157 220.209C267.976 220.209 268.769 220.526 269.377 221.055C269.483 221.161 269.642 221.161 269.747 221.055L270.619 220.156C270.725 220.05 270.725 219.865 270.593 219.759C269.615 218.888 268.558 218.412 267.105 218.412C264.225 218.412 261.872 220.737 261.872 223.644C261.872 226.551 264.197 228.824 267.105 228.824C268.4 228.824 269.642 228.375 270.619 227.424C270.725 227.318 270.751 227.133 270.645 227.028L269.774 226.102Z" fill="white"/>
<path d="M276.619 218.412C273.739 218.412 271.439 220.737 271.439 223.644C271.439 226.551 273.738 228.824 276.619 228.824C279.5 228.824 281.825 226.525 281.825 223.644C281.825 220.763 279.5 218.412 276.619 218.412ZM276.619 226.948C274.795 226.948 273.315 225.468 273.315 223.644C273.315 221.82 274.795 220.314 276.619 220.314C278.443 220.314 279.949 221.82 279.949 223.644C279.922 225.468 278.443 226.948 276.619 226.948Z" fill="white"/>
<path d="M291.68 218.571H290.358C290.2 218.571 290.094 218.704 290.094 218.836V224.807H290.068L284.043 218.412H283.672C283.54 218.412 283.408 218.518 283.408 218.676V228.4C283.408 228.533 283.54 228.665 283.672 228.665H284.994C285.152 228.665 285.258 228.533 285.258 228.4V222.191H285.284L291.336 228.823H291.68C291.812 228.823 291.944 228.717 291.944 228.559V218.835C291.944 218.702 291.812 218.57 291.68 218.57V218.571Z" fill="white"/>
<path d="M297.468 218.572H294.032C293.9 218.572 293.768 218.704 293.768 218.836V228.402C293.768 228.534 293.874 228.666 294.032 228.666H297.468C300.269 228.666 302.542 226.393 302.542 223.592C302.542 220.791 300.269 218.572 297.468 218.572ZM297.31 226.922H295.645V220.316H297.283C299.16 220.316 300.534 221.743 300.534 223.619C300.56 225.496 299.186 226.923 297.31 226.923V226.922Z" fill="white"/>
<path d="M312.213 228.349L307.747 218.624C307.695 218.545 307.641 218.466 307.509 218.466H307.377C307.245 218.466 307.165 218.546 307.139 218.624L302.647 228.349C302.567 228.533 302.673 228.719 302.885 228.719H304.153C304.391 228.719 304.523 228.587 304.576 228.428L305.289 226.869H309.623L310.336 228.428C310.442 228.64 310.548 228.719 310.758 228.719H312.026C312.185 228.693 312.291 228.534 312.211 228.349H312.213ZM305.977 225.231L307.405 222.059H307.457L308.911 225.231H305.977Z" fill="white"/>
<path d="M314.01 228.534H314.09C314.116 228.534 314.142 228.508 314.142 228.482V228.217H314.301L314.407 228.508C314.407 228.534 314.433 228.534 314.459 228.534H314.565C314.591 228.534 314.617 228.508 314.617 228.482C314.565 228.402 314.538 228.297 314.485 228.217C314.565 228.191 314.67 228.111 314.67 227.953C314.67 227.769 314.538 227.663 314.379 227.663H314.035C314.009 227.663 313.983 227.689 313.983 227.715V228.482C313.983 228.517 313.992 228.534 314.009 228.534H314.01ZM314.142 227.821H314.354C314.434 227.821 314.46 227.873 314.46 227.927C314.46 227.98 314.408 228.033 314.354 228.033H314.142V227.821Z" fill="#06262D"/>
<path d="M314.274 228.956C314.75 228.956 315.119 228.586 315.119 228.111C315.119 227.636 314.723 227.266 314.274 227.266C313.798 227.266 313.429 227.662 313.429 228.111C313.429 228.56 313.799 228.956 314.274 228.956ZM314.274 227.397C314.644 227.397 314.961 227.713 314.961 228.084C314.961 228.454 314.644 228.77 314.274 228.77C313.904 228.77 313.587 228.454 313.587 228.084C313.587 227.713 313.904 227.397 314.274 227.397Z" fill="#06262D"/>
<path d="M263.349 205.44V205.36C263.349 204.556 263.43 203.793 263.55 203.03V202.949L263.469 202.909C262.745 202.628 262.063 202.227 261.38 201.864L261.3 201.825L261.26 201.905C260.818 202.789 260.457 203.753 260.135 204.717L260.095 204.798L260.176 204.838C261.18 205.119 262.185 205.32 263.229 205.401L263.35 205.44H263.349Z" fill="#31A824"/>
<path d="M265.437 191.662C265.437 191.636 265.437 191.636 265.437 191.662C264.834 191.662 264.271 191.702 263.67 191.743C263.751 192.346 263.83 192.909 263.991 193.51C264.393 192.828 264.875 192.184 265.437 191.662Z" fill="#31A824"/>
<path d="M263.348 206.163V206.083H263.268C262.425 206.002 261.541 205.841 260.657 205.641L260.415 205.601L260.536 205.801C261.299 206.967 262.263 208.01 263.387 208.934L263.548 209.095V208.813C263.427 207.889 263.347 206.965 263.347 206.162L263.348 206.163Z" fill="#31A824"/>
<path d="M267.566 185.357C266.521 185.718 265.518 186.2 264.594 186.803C265.276 186.923 265.96 187.084 266.642 187.284C266.923 186.642 267.205 185.999 267.566 185.357Z" fill="#31A824"/>
<path d="M271.944 184.634C271.423 184.634 270.9 184.674 270.418 184.715C271.141 185.197 271.824 185.759 272.466 186.362L272.988 186.844L272.466 187.366C272.024 187.768 271.582 188.25 271.181 188.732V188.771C271.181 188.771 271.1 188.852 270.981 189.013C271.302 188.973 271.623 188.973 271.944 188.973C277.046 188.973 281.183 193.111 281.183 198.212C281.183 203.313 277.046 207.451 271.944 207.451C270.177 207.451 268.53 206.969 267.124 206.085C266.442 206.166 265.719 206.206 265.036 206.206C264.715 206.206 264.394 206.206 264.072 206.166C264.112 207.211 264.193 208.295 264.354 209.419C266.523 210.906 269.134 211.749 271.945 211.749C279.456 211.749 285.522 205.684 285.522 198.172C285.522 190.66 279.456 184.634 271.944 184.634Z" fill="#31A824"/>
<path d="M270.137 187.848C270.418 187.527 270.699 187.205 270.98 186.924C270.337 186.402 269.654 185.879 268.971 185.437C268.529 186.161 268.168 186.924 267.847 187.687C268.449 187.929 269.052 188.169 269.655 188.45C269.896 188.129 270.097 187.888 270.137 187.848Z" fill="#31A824"/>
<path d="M260.938 195.6L260.978 195.681L261.059 195.641C261.701 195.199 262.344 194.757 263.027 194.396L263.108 194.356V194.275C262.908 193.512 262.747 192.709 262.666 191.906V191.825H262.585C261.582 192.025 260.577 192.267 259.653 192.628L259.572 192.668L259.612 192.749C259.894 193.712 260.375 194.676 260.938 195.6Z" fill="#31A824"/>
<path d="M260.777 196.885L260.696 196.966C259.973 197.569 259.29 198.211 258.648 198.935L258.567 199.016L258.648 199.097C259.371 199.699 260.094 200.262 260.898 200.784L260.979 200.824L261.019 200.743C261.38 200.1 261.782 199.498 262.224 198.895L262.264 198.814L262.224 198.774C261.742 198.211 261.26 197.65 260.818 197.007L260.778 196.886L260.777 196.885Z" fill="#31A824"/>
<path d="M266.12 205.481H266.362L266.161 205.32C265.438 204.717 264.795 204.035 264.313 203.232V203.192L264.153 203.111V203.232C264.072 203.914 263.992 204.638 263.992 205.361V205.442H264.073C264.394 205.442 264.716 205.482 265.037 205.482H266.121L266.12 205.481Z" fill="#31A824"/>
<path d="M265.678 190.458C265.839 189.776 266 189.132 266.241 188.49C265.398 188.248 264.514 188.048 263.63 187.927C263.549 188.851 263.549 189.694 263.59 190.578C264.273 190.497 264.956 190.457 265.678 190.457V190.458Z" fill="#31A824"/>
<path d="M266.963 190.418C267.566 190.057 268.208 189.735 268.851 189.494C268.369 189.252 267.887 189.052 267.405 188.891C267.244 189.373 267.084 189.895 266.963 190.418Z" fill="#31A824"/>
<path d="M260.657 201.423H260.576C259.894 200.981 259.21 200.499 258.568 199.977L258.367 199.817L258.407 200.058C258.568 201.343 258.929 202.629 259.491 203.834L259.572 204.034L259.653 203.834C259.935 203.07 260.256 202.307 260.617 201.584L260.657 201.423Z" fill="#31A824"/>
<path d="M262.384 188.569C261.58 189.372 260.857 190.296 260.295 191.26C260.978 191.059 261.701 190.899 262.425 190.738C262.385 190.014 262.385 189.292 262.385 188.569H262.384Z" fill="#31A824"/>
<path d="M262.785 198.09V197.848C262.825 197.005 262.946 196.201 263.187 195.438L263.268 195.196L263.067 195.317C262.546 195.638 262.023 195.959 261.501 196.321L261.42 196.36L261.541 196.441C261.902 196.923 262.264 197.445 262.665 197.887L262.786 198.088L262.785 198.09Z" fill="#31A824"/>
<path d="M262.906 199.495L262.866 199.254L262.746 199.454C262.385 199.976 262.022 200.539 261.701 201.101L261.661 201.182L261.742 201.222C262.305 201.543 262.907 201.825 263.509 202.106L263.709 202.187L263.629 201.987C263.267 201.223 263.026 200.339 262.905 199.496L262.906 199.495Z" fill="#31A824"/>
<path d="M260.256 196.243L260.336 196.203L260.297 196.122C259.855 195.439 259.493 194.716 259.131 193.993L259.05 193.792L258.969 194.034C258.567 195.279 258.367 196.524 258.327 197.85V198.091L258.488 197.931C259.009 197.288 259.612 196.726 260.254 196.244L260.256 196.243Z" fill="#31A824"/>
</g>
<rect x="0.250461" y="19.2504" width="77.6239" height="73.1167" rx="3.75599" fill="#C4F0D6" stroke="#C4F0D6" stroke-width="0.500799"/>
<path d="M28.2475 67.3561V42.1621C28.2475 41.2924 28.9542 40.5858 29.8239 40.5858C30.2111 40.5858 30.5848 40.7285 30.8702 40.9867L49.4871 57.5381C49.8065 57.8235 49.9899 58.2311 49.9899 58.6592C49.9899 59.4881 49.3173 60.1608 48.4883 60.1608H39.2206L43.3721 69.5032C43.6167 70.0535 43.3721 70.6922 42.8217 70.9368C42.2714 71.1814 41.6327 70.9368 41.3881 70.3865L37.2434 61.0644L30.8702 68.3413C30.5848 68.6675 30.1772 68.8509 29.7423 68.8509C28.9134 68.8509 28.2475 68.1783 28.2475 67.3561ZM30.4218 43.3036V65.5896L36.2922 58.7407C36.7067 58.2583 37.3114 57.9797 37.9433 57.9797H46.7286L30.4218 43.3036Z" fill="#0A444D"/>
<rect x="396.876" y="393.028" width="77.6239" height="73.1167" rx="3.75599" fill="#C4F0D6" stroke="#C4F0D6" stroke-width="0.500799"/>
<g clip-path="url(#clip1_871_7739)">
<g clip-path="url(#clip2_871_7739)">
<path d="M421.978 416.528C420.775 416.528 419.802 417.501 419.802 418.705V423.057C419.802 424.261 420.775 425.234 421.978 425.234H448.094C449.298 425.234 450.27 424.261 450.27 423.057V418.705C450.27 417.501 449.298 416.528 448.094 416.528H421.978ZM417.626 418.705C417.626 416.304 419.578 414.352 421.978 414.352H448.094C450.494 414.352 452.446 416.304 452.446 418.705V423.057C452.446 425.458 450.494 427.41 448.094 427.41H421.978C419.578 427.41 417.626 425.458 417.626 423.057V418.705ZM421.978 433.939C420.775 433.939 419.802 434.911 419.802 436.115V440.468C419.802 441.671 420.775 442.644 421.978 442.644H448.094C449.298 442.644 450.27 441.671 450.27 440.468V436.115C450.27 434.911 449.298 433.939 448.094 433.939H421.978ZM417.626 436.115C417.626 433.714 419.578 431.762 421.978 431.762H448.094C450.494 431.762 452.446 433.714 452.446 436.115V440.468C452.446 442.868 450.494 444.82 448.094 444.82H421.978C419.578 444.82 417.626 442.868 417.626 440.468V436.115ZM438.3 438.291C438.3 437.858 438.472 437.443 438.779 437.137C439.085 436.831 439.5 436.659 439.933 436.659C440.366 436.659 440.781 436.831 441.087 437.137C441.393 437.443 441.565 437.858 441.565 438.291C441.565 438.724 441.393 439.139 441.087 439.445C440.781 439.751 440.366 439.923 439.933 439.923C439.5 439.923 439.085 439.751 438.779 439.445C438.472 439.139 438.3 438.724 438.3 438.291ZM439.933 419.249C440.366 419.249 440.781 419.421 441.087 419.727C441.393 420.033 441.565 420.448 441.565 420.881C441.565 421.314 441.393 421.729 441.087 422.035C440.781 422.341 440.366 422.513 439.933 422.513C439.5 422.513 439.085 422.341 438.779 422.035C438.472 421.729 438.3 421.314 438.3 420.881C438.3 420.448 438.472 420.033 438.779 419.727C439.085 419.421 439.5 419.249 439.933 419.249ZM443.741 438.291C443.741 437.858 443.913 437.443 444.219 437.137C444.525 436.831 444.941 436.659 445.373 436.659C445.806 436.659 446.221 436.831 446.528 437.137C446.834 437.443 447.006 437.858 447.006 438.291C447.006 438.724 446.834 439.139 446.528 439.445C446.221 439.751 445.806 439.923 445.373 439.923C444.941 439.923 444.525 439.751 444.219 439.445C443.913 439.139 443.741 438.724 443.741 438.291ZM445.373 419.249C445.806 419.249 446.221 419.421 446.528 419.727C446.834 420.033 447.006 420.448 447.006 420.881C447.006 421.314 446.834 421.729 446.528 422.035C446.221 422.341 445.806 422.513 445.373 422.513C444.941 422.513 444.525 422.341 444.219 422.035C443.913 421.729 443.741 421.314 443.741 420.881C443.741 420.448 443.913 420.033 444.219 419.727C444.525 419.421 444.941 419.249 445.373 419.249Z" fill="#0A444D"/>
</g>
</g>
<rect x="450.126" y="88.2504" width="77.6239" height="73.1167" rx="3.75599" fill="#C4F0D6" stroke="#C4F0D6" stroke-width="0.500799"/>
<g clip-path="url(#clip3_871_7739)">
<path d="M488.075 112.137L471.85 118L476.475 119.669C477.119 119.238 477.819 118.881 478.563 118.6L488.525 114.863C489.044 114.669 489.619 114.931 489.813 115.45C490.007 115.969 489.744 116.544 489.225 116.738L479.263 120.475C479.169 120.506 479.082 120.544 478.994 120.581L488.075 123.863C488.332 123.956 488.6 124 488.875 124C489.15 124 489.419 123.95 489.675 123.863L505.9 118L489.675 112.137C489.419 112.044 489.15 112 488.875 112C488.6 112 488.332 112.05 488.075 112.137ZM487.394 125.744L476.807 121.919C475.088 123.375 474.007 125.494 473.888 127.806C474.257 128.631 474.525 129.525 474.725 130.4C475.125 132.125 475.394 134.519 474.857 137.194C474.8 137.462 474.644 137.694 474.413 137.844C474.182 137.994 473.9 138.038 473.638 137.969L469.638 136.969C469.313 136.888 469.05 136.65 468.938 136.331C468.825 136.012 468.882 135.663 469.082 135.4C469.619 134.669 470.082 133.862 470.488 133.05C471.2 131.612 471.875 129.775 471.875 128C471.875 127.962 471.875 127.925 471.882 127.888C471.969 125.325 473.007 122.944 474.7 121.156L469.863 119.413C469.269 119.194 468.875 118.631 468.875 118C468.875 117.369 469.269 116.806 469.863 116.587L487.394 110.256C487.869 110.087 488.369 110 488.875 110C489.382 110 489.882 110.087 490.357 110.256L507.888 116.587C508.482 116.8 508.875 117.369 508.875 118C508.875 118.631 508.482 119.194 507.888 119.413L490.357 125.744C489.882 125.912 489.382 126 488.875 126C488.369 126 487.869 125.912 487.394 125.744ZM479.769 125.119L478.9 133.394C478.944 133.444 479.013 133.525 479.132 133.625C479.507 133.95 480.163 134.344 481.125 134.719C483.025 135.462 485.769 136 488.875 136C491.982 136 494.725 135.462 496.632 134.712C497.594 134.337 498.244 133.944 498.625 133.619C498.744 133.519 498.813 133.444 498.857 133.388L497.982 125.112L499.919 124.413L500.875 133.5C500.875 135.706 495.5 138 488.875 138C482.25 138 476.875 135.706 476.875 133.5L477.832 124.413L479.769 125.112V125.119ZM498.907 133.312C498.907 133.312 498.907 133.312 498.9 133.319C498.9 133.312 498.907 133.312 498.907 133.312ZM478.844 133.312C478.844 133.312 478.844 133.312 478.85 133.319C478.85 133.312 478.844 133.312 478.844 133.312ZM473.063 135.763C473.219 134.469 473.169 133.263 473.032 132.219C472.794 132.844 472.532 133.425 472.275 133.944C472.038 134.419 471.782 134.894 471.494 135.369L473.063 135.763Z" fill="#0A444D"/>
</g>
<rect x="39.8762" y="315.028" width="77.6239" height="73.1167" rx="3.75599" fill="#C4F0D6" stroke="#C4F0D6" stroke-width="0.500799"/>
<g clip-path="url(#clip4_871_7739)">
<path d="M76.8097 336.897C77.332 336.675 77.9196 336.675 78.4419 336.897L89.9784 341.794C90.7161 342.107 91.2123 342.806 91.2058 343.596C91.1732 349.733 88.6334 360.558 78.4419 365.435C77.9261 365.683 77.3189 365.683 76.8032 365.435C66.6116 360.551 64.0784 349.726 64.0458 343.589C64.0392 342.799 64.5354 342.101 65.2732 341.787L76.8097 336.891V336.897ZM79.258 334.971C78.2134 334.527 77.0382 334.527 75.9936 334.971L64.4571 339.868C63.0207 340.475 61.95 341.892 61.9565 343.602C61.9892 350.079 64.653 361.929 75.9022 367.315C76.9925 367.837 78.2591 367.837 79.3494 367.315C90.5986 361.929 93.2624 350.079 93.295 343.602C93.3016 341.892 92.2308 340.475 90.7945 339.868L79.258 334.971ZM84.6313 347.735C85.036 347.33 85.036 346.664 84.6313 346.26C84.2265 345.855 83.5605 345.855 83.1557 346.26L75.5366 353.879L72.0959 350.438C71.6911 350.033 71.0251 350.033 70.6203 350.438C70.2155 350.843 70.2155 351.509 70.6203 351.914L74.7988 356.092C75.2036 356.497 75.8695 356.497 76.2743 356.092L84.6313 347.735Z" fill="#0A444D"/>
</g>
<defs>
<clipPath id="clip0_871_7739">
<rect width="83.1092" height="44.3229" fill="white" transform="translate(232.012 184.634)"/>
</clipPath>
<clipPath id="clip1_871_7739">
<rect width="34.8206" height="34.8206" fill="white" transform="translate(417.626 412.176)"/>
</clipPath>
<clipPath id="clip2_871_7739">
<rect width="34.8206" height="34.8206" fill="white" transform="translate(417.626 412.176)"/>
</clipPath>
<clipPath id="clip3_871_7739">
<rect width="40" height="32" fill="white" transform="translate(468.875 108)"/>
</clipPath>
<clipPath id="clip4_871_7739">
<rect width="34.8206" height="34.8206" fill="white" transform="translate(60.6258 334.176)"/>
</clipPath>
</defs>
</svg>
