<?xml version="1.0" encoding="UTF-8"?>
<svg xmlns="http://www.w3.org/2000/svg" width="88" height="57" viewBox="0 0 88 57" fill="none">
  <path d="M27.4106 45.0037L27.2535 45.1558C24.7866 47.6694 21.9319 48.9973 18.9913 48.9973C12.8499 48.9973 8.39477 44.39 8.39477 38.035C8.39477 31.6899 12.8499 27.0752 18.9913 27.0752C21.9319 27.0752 24.7866 28.4105 27.2535 30.9339L27.4106 31.0836L31.3601 26.3069L31.2545 26.1793C27.9702 22.2986 24.0281 20.411 19.1828 20.411C14.3251 20.411 9.87735 22.0482 6.67655 24.9962C3.19101 28.1921 1.35742 32.6987 1.35742 38.035C1.35742 43.3714 3.19101 47.8878 6.67655 51.0837C9.87735 54.0489 14.3251 55.6738 19.1828 55.6738C24.0281 55.6738 27.9702 53.7838 31.2545 49.9006L31.3601 49.7828L27.4106 45.0037Z" fill="#1D6DBD"></path>
  <path d="M35.3496 55.0225H42.3255V20.9624H35.3496V55.0225Z" fill="#1D6DBD"></path>
  <path d="M69.6558 47.6181C67.7927 48.7521 66.0622 49.324 64.506 49.324C62.2502 49.324 61.2291 48.1311 61.2291 45.4801V27.4069H68.3401V20.9954H61.2291V10.3965L54.3931 14.0587V20.9954H48.4922V27.4069H54.3931V46.6313C54.3931 51.867 57.4957 55.4507 62.13 55.544C65.2743 55.6054 67.1693 54.6677 68.318 53.9804L68.3917 53.9338L70.0682 47.3653L69.6558 47.6181Z" fill="#1D6DBD"></path>
  <path d="M75.4297 55.0225H82.4155V20.9624H75.4297V55.0225Z" fill="#1D6DBD"></path>
  <path d="M86.484 14.9921C80.1094 5.9641 69.5251 0.578698 58.7567 0.578698C47.9909 0.578698 37.4041 5.9641 31.0418 14.9921L30.7129 15.4561H38.7394L38.8278 15.3603C44.2893 9.71964 51.4224 6.73976 58.7567 6.73976C66.0911 6.73976 73.2193 9.71964 78.693 15.3603L78.7814 15.4561H86.8031L86.484 14.9921Z" fill="#B51010"></path>
</svg>
