<?xml version="1.0" encoding="UTF-8"?>
<svg xmlns="http://www.w3.org/2000/svg" width="180" height="34" viewBox="0 0 180 34" fill="none">
  <g clip-path="url(#clip0_1283_831)">
    <path d="M70.4081 6.77672H75.3539V8.46636C75.8849 8.00406 77.5996 6.36236 80.7664 6.36236C84.4927 6.36236 87.4534 9.11331 87.4534 13.433V24.6458H82.2291V14.8228C82.2291 12.4146 81.0548 10.9862 78.9293 10.9862C76.8704 10.9862 75.6316 12.333 75.6316 14.8228V24.6458H70.4081V6.77672ZM120.169 15.7109C120.169 10.5561 124.296 6.36236 129.702 6.36236C135.107 6.36236 139.233 10.5561 139.233 15.7109C139.233 20.8643 135.106 25.053 129.702 25.053C124.296 25.053 120.169 20.8643 120.169 15.7109ZM125.326 15.7109C125.326 18.1791 127.17 20.2102 129.733 20.2102C132.301 20.2102 134.148 18.1791 134.148 15.7109C134.148 13.2412 132.301 11.2116 129.733 11.2116C127.17 11.2116 125.326 13.2412 125.326 15.7109ZM48.4219 15.7145C48.4219 10.5575 52.5519 6.36379 57.9529 6.36379C63.3603 6.36379 67.4889 10.5575 67.4889 15.7145C67.4889 20.8664 63.3603 25.0537 57.9529 25.0537C52.5512 25.0544 48.4219 20.8664 48.4219 15.7145ZM53.5788 15.713C53.5788 18.1827 55.4231 20.2137 57.9894 20.2137C60.5571 20.2137 62.4014 18.1827 62.4014 15.713C62.4014 13.2412 60.5571 11.2137 57.9894 11.2137C55.4231 11.2137 53.5788 13.2412 53.5788 15.713ZM164.575 4.79723H169.87V0.25H164.575V4.79723ZM164.575 24.6458H169.87V6.77672H164.575V24.6458ZM173.954 24.6458H179.251V0.25H173.954V24.6458ZM147.317 24.6458H142.296V0.25H147.375V8.19513C147.627 8.00978 149.272 6.36236 152.867 6.36236C157.568 6.36236 161.492 10.4 161.492 15.7145C161.492 21.0188 157.313 25.0565 152.806 25.0565C149.378 25.0565 147.744 23.5508 147.375 23.2703L147.317 24.6458ZM156.126 15.7009C156.126 13.1882 154.221 11.2388 151.669 11.2388C149.133 11.2388 147.186 13.1703 147.186 15.7152C147.186 18.2278 149.107 20.1772 151.664 20.1772C154.196 20.1765 156.126 18.2207 156.126 15.7009ZM17.6218 24.6458H23.747L29.2532 17.5694L32.6862 21.0468L24.8305 30.8826H30.9772L36.0075 24.3638L45.4756 34H52.8961L39.2881 20.3161L50.0049 6.77672H43.8546L35.9345 16.9461L32.5073 13.501L41.3176 2.40553H35.1838L29.1666 10.1474L25.899 6.77672H18.5808L25.9519 14.2187L17.6218 24.6458ZM0.338867 0.25V24.6458H16.4059V20.0935H5.80499V14.2646H15.93V9.85186H5.80499V4.79509H16.4059V0.25H0.338867ZM91.6378 0.25V24.6458H96.7783V6.22567H97.0116L101.434 24.6465H107.209L111.735 6.22567H111.969V24.6465H117.109V0.25H108.715L104.536 18.0546H104.35L100.274 0.25H91.6378Z" fill="#B51010"></path>
  </g>
  <defs>
    <clipPath id="clip0_1283_831">
      <rect width="178.912" height="33.75" fill="white" transform="translate(0.34082 0.25)"></rect>
    </clipPath>
  </defs>
</svg>
