<svg width="23" height="23" viewBox="0 0 23 23" fill="none" xmlns="http://www.w3.org/2000/svg">
<path d="M11.6756 0.444824C5.4864 0.444824 0.468384 5.46284 0.468384 11.652C0.468384 16.9035 4.08457 21.2977 8.9597 22.5136C8.9074 22.3623 8.87377 22.1868 8.87377 21.9692V20.0537C8.41895 20.0537 7.65686 20.0537 7.4654 20.0537C6.69865 20.0537 6.01688 19.724 5.68626 19.1113C5.31923 18.4305 5.25572 17.3892 4.34607 16.7522C4.07616 16.5402 4.28163 16.2983 4.59263 16.331C5.167 16.4935 5.6433 16.8876 6.09159 17.4723C6.53801 18.0579 6.74814 18.1905 7.58215 18.1905C7.98654 18.1905 8.59173 18.1671 9.16142 18.0775C9.46775 17.2995 9.99729 16.5832 10.6445 16.2451C6.91252 15.8612 5.13151 14.0046 5.13151 11.4839C5.13151 10.3987 5.5938 9.34893 6.37924 8.4645C6.12148 7.5866 5.7974 5.79626 6.47824 5.11449C8.15745 5.11449 9.17263 6.20345 9.41639 6.49764C10.2532 6.21092 11.1722 6.04842 12.1379 6.04842C13.1054 6.04842 14.0281 6.21092 14.8668 6.49951C15.1078 6.20719 16.1239 5.11449 17.8068 5.11449C18.4905 5.79719 18.1627 7.59501 17.9021 8.47104C18.6829 9.3536 19.1424 10.4005 19.1424 11.4839C19.1424 14.0027 17.3642 15.8584 13.6378 16.2442C14.6632 16.7793 15.4113 18.2829 15.4113 19.4158V21.9692C15.4113 22.0663 15.3898 22.1363 15.3786 22.2195C19.7457 20.6887 22.8828 16.5421 22.8828 11.652C22.8828 5.46284 17.8647 0.444824 11.6756 0.444824Z" fill="white"/>
</svg>
