<svg width="488" height="494" viewBox="0 0 488 494" fill="none" xmlns="http://www.w3.org/2000/svg">
<path opacity="0.3" d="M487.022 1297.63C486.306 1189.65 487.287 1074.86 482.762 956.68C478.026 832.72 463.994 703.978 407.923 580.218C336.748 423.122 85.0025 316.192 -44.295 152.575C-411.055 -311.477 -490.577 93.4617 -785.365 371.159C-942.748 520.04 -1170.93 294.494 -1381.99 273.975M461 1281.21C454.97 1169.9 454.943 1055.24 455.316 938.903C455.703 813.954 449.889 685.034 382.684 565.695C297.669 414.747 58.5067 311.053 -77.7158 146.067C-440.152 -293.015 -513.255 87.0671 -800.26 351.348C-953.637 492.588 -1174.1 276.841 -1378.68 256.249M433.856 1260.03C422.391 1145.34 420.671 1033.19 425.793 918.761C431.428 792.749 435.337 671.278 356.927 556.349C258.168 411.577 26.7945 306.467 -116.476 139.929C-473.262 -274.727 -522.012 78.1575 -801.597 328.772C-950.806 462.508 -1163.72 256.428 -1361.81 235.759M408.895 1248.42C384.607 1131.24 390.643 1015.86 400.34 903.398C411.303 776.252 421.792 647.271 332.125 536.718C219.717 398.13 5.91517 301.24 -144.595 133.096C-494.437 -257.733 -557.924 74.8221 -830.089 311.77C-975.104 438.019 -1180.48 241.585 -1372.1 220.823M382.876 1232.03C351.705 1111.85 358.753 996.085 372.897 885.64C389.335 757.283 407.882 628.401 306.892 522.235C180.926 389.838 -20.0786 296.493 -178.01 126.628C-519.742 -240.938 -580.209 68.7134 -844.977 291.998C-985.78 410.737 -1183.63 223.973 -1368.78 203.136M356.812 1215.63C328.336 1090.59 326.977 976.311 345.409 867.888C367.43 738.286 394.014 609.506 281.615 507.756C142.177 381.52 -45.9247 291.805 -211.45 120.142C-543.977 -224.715 -602.499 62.585 -859.892 272.209C-996.482 383.439 -1186.83 206.346 -1365.51 185.436M330.793 1199.23C296.41 1070.73 295.4 956.492 317.943 850.133C345.702 719.247 380.21 590.583 256.356 493.256C103.512 373.152 -71.6035 287.156 -244.867 113.654C-567.189 -209.075 -624.721 56.4487 -874.784 252.417C-1007.14 356.135 -1189.99 188.733 -1362.2 167.71M304.751 1182.84C264.345 1050.88 263.942 936.697 290.477 832.378C324.111 700.21 366.445 571.616 231.101 478.775C64.9102 364.757 -97.0933 282.542 -278.307 107.169C-589.484 -193.968 -646.965 50.3146 -889.721 232.631C-1017.84 328.856 -1193.19 171.107 -1358.93 150.01M278.71 1166.44C232.173 1031.06 232.619 916.885 263.012 814.622C302.677 681.153 352.721 552.623 205.846 464.293C26.3467 356.317 -122.375 277.941 -311.722 100.7C-610.9 -179.348 -669.136 44.2109 -904.609 212.859C-1028.47 301.568 -1196.35 153.493 -1355.62 132.304M252.668 1150.05C199.887 1011.25 201.414 897.097 235.546 796.867C281.407 662.114 339.012 533.589 180.587 449.792C-12.2044 347.816 -147.48 273.296 -345.162 94.2137C-631.563 -165.28 -691.291 38.0649 -919.524 193.069C-1039.1 274.28 -1199.55 135.866 -1352.33 114.599M226.646 1133.63C167.561 991.466 170.37 877.31 208.077 779.093C260.298 643.076 325.342 514.511 155.351 435.289C-50.6946 339.268 -172.345 268.583 -378.56 87.7042C-651.484 -151.699 -713.378 31.9114 -934.397 173.256C-1049.67 246.965 -1202.69 118.212 -1349.02 96.8745M200.583 1117.23C135.061 971.744 139.406 857.59 180.589 761.34C239.298 624.141 311.621 495.4 130.07 420.792C-89.2361 330.687 -197.041 263.789 -412 81.2192C-670.796 -138.571 -735.436 25.7938 -949.311 153.468C-1060.25 219.691 -1205.87 100.583 -1345.73 79.152M174.564 1100.84C102.565 952.042 108.583 837.892 153.146 743.582C218.531 605.236 297.964 476.261 104.838 406.307C-127.74 322.061 -221.417 258.855 -445.414 74.7501C-689.469 -125.861 -757.421 19.7056 -964.2 133.695C-1070.76 192.447 -1209.04 82.9724 -1342.41 61.4649M148.522 1084.44C69.9412 932.396 77.8148 818.247 125.658 725.83C197.849 586.419 284.258 457.108 79.5601 391.829C-166.269 313.419 -245.528 253.729 -478.854 68.2645C-707.648 -113.61 -779.357 13.6307 -979.114 113.906C-1081.27 165.183 -1212.22 65.3427 -1339.12 43.7613M122.481 1068.04C37.2599 912.817 47.124 798.651 98.1922 708.075C177.341 567.679 270.568 437.914 54.3014 377.328C-204.805 304.739 -269.278 248.301 -512.272 61.7769C-725.322 -101.757 -801.194 7.60312 -994.006 94.1142C-1091.73 137.972 -1215.38 47.7107 -1335.83 26.039M96.4393 1051.65C4.53687 893.262 16.5132 779.123 70.7262 690.32C156.964 549.041 256.856 418.723 29.0462 362.847C-243.367 296.042 -292.611 242.504 -545.708 55.311C-742.582 -90.2939 -822.973 1.64746 -1008.92 74.3453C-1102.16 110.798 -1218.58 30.1038 -1332.54 8.35533M70.398 1035.25C-28.269 873.758 -14.0422 759.648 43.2382 672.567C136.7 530.526 243.114 399.495 3.76855 348.369C-281.951 287.348 -315.398 236.142 -579.148 48.8255C-759.478 -79.2525 -844.668 -4.22114 -1023.83 54.5559C-1112.54 83.6548 -1221.76 12.4737 -1329.25 -9.36796M44.3566 1018.86C-61.1131 854.298 -44.5619 740.247 15.7727 654.812C116.568 512.113 229.392 380.246 -21.49 333.869C-320.522 278.593 -337.497 228.982 -612.588 42.3399C-776.047 -68.5689 -866.272 -9.96221 -1038.75 34.7674C-1122.88 56.5873 -1224.94 -5.15551 -1325.96 -27.071M18.3153 1002.46C-93.9955 834.882 -75.0493 720.901 -11.6928 637.056C96.5683 493.801 215.647 360.999 -46.7452 319.387C-359.116 269.84 -358.693 220.68 -646.003 35.8706C-792.361 -58.2735 -887.795 -15.4975 -1053.63 14.9942C-1133.18 29.6125 -1228.1 -22.7691 -1322.64 -44.7585M-7.73302 986.026C-126.945 815.474 -105.511 701.573 -39.1877 619.266C76.6106 475.603 201.87 341.697 -72.0295 304.87C-397.739 261.052 -378.638 210.579 -679.449 29.3465C-808.547 -48.4288 -909.359 -20.8686 -1068.56 -4.83323C-1143.49 2.71877 -1231.3 -40.4345 -1319.38 -62.5171M-33.752 969.627C-159.882 796.145 -135.953 682.36 -66.6276 601.527C56.7982 457.584 188.197 322.067 -97.2623 290.386C-436.275 251.838 -396.739 197.734 -712.863 22.8777C-824.682 -38.9655 -930.953 -25.8802 -1083.44 -24.6054C-1153.82 -24.0145 -1234.46 -58.0474 -1316.06 -80.2039" stroke="url(#paint0_linear_871_7722)" stroke-miterlimit="10"/>
<defs>
<linearGradient id="paint0_linear_871_7722" x1="345.014" y1="759.083" x2="-710.603" y2="-227.533" gradientUnits="userSpaceOnUse">
<stop stop-color="#0CCA4A"/>
<stop offset="1" stop-color="#6D5BF6"/>
</linearGradient>
</defs>
</svg>
