<svg width="239" height="494" viewBox="0 0 239 494" fill="none" xmlns="http://www.w3.org/2000/svg">
<path opacity="0.3" d="M288.524 -833.697C239.465 -758.068 186.275 -678.192 134.805 -594.288C80.8117 -506.282 30.1538 -412.13 6.76994 -308.761C-22.9118 -177.549 77.7429 -26.8394 79.6257 126.48C84.9924 561.341 317.843 302.545 620.354 197.627C782.146 141.177 814.435 367.614 930.5 445.684M296.47 -814.371C249.042 -734.81 196.51 -654.719 142.974 -573.583C85.4821 -486.434 29.8573 -394.64 15.1186 -290.996C-3.5179 -159.898 91.1396 -15.2491 96.5115 141.119C110.752 557.235 328.395 313.86 620.13 215.961C776.038 163.638 808.225 380.897 920.408 457.064M302.898 -791.378C257.154 -707.817 206.781 -628.972 151.295 -550.599C90.1956 -464.293 32.2041 -380.638 26.1476 -276.69C18.5116 -145.754 107.89 -2.46854 116.741 157.111C138.816 554.461 329.518 322.727 610.579 232.132C760.57 183.792 792.702 392.021 900.99 466.28M312.419 -775.735C273.155 -686.559 216.691 -607.801 159.385 -532.183C94.5994 -446.694 29.2543 -359.78 31.8955 -255.49C35.2083 -124.75 117.907 7.48741 130.326 170.376C159.192 548.988 349.338 335.902 619.725 252.611C763.792 208.233 795.862 407.448 900.262 479.819M320.372 -756.424C283.827 -663.078 226.585 -584.356 167.562 -511.493C98.9663 -426.811 28.8756 -342.4 40.2584 -237.754C54.4684 -107.244 131.185 18.6533 147.226 184.985C181.932 544.9 359.787 346.899 619.515 270.917C757.636 230.511 789.666 420.701 890.185 491.169M328.354 -737.104C287.976 -641.172 236.413 -560.95 175.768 -490.793C103.282 -406.929 28.4607 -325.016 48.6506 -220.008C73.6922 -89.7327 144.402 29.7327 164.134 199.613C203.774 540.889 370.229 357.911 619.312 289.242C751.488 252.809 783.491 433.979 880.129 502.544M336.306 -717.793C297.858 -617.664 246.102 -537.572 183.959 -470.098C107.474 -387.069 27.9947 -307.631 57.0209 -202.252C92.8435 -72.2114 157.537 40.7349 181.026 214.237C224.741 536.976 380.628 368.907 619.095 307.561C745.31 275.096 777.295 447.233 870.038 513.924M344.274 -698.477C307.82 -594.113 255.732 -514.246 192.15 -449.403C111.585 -367.253 27.486 -290.227 65.3985 -184.511C111.944 -54.69 170.575 51.6553 197.934 228.865C244.918 533.158 391.041 379.909 618.907 325.891C739.169 297.379 771.121 460.511 859.983 525.299M352.241 -679.162C317.862 -570.553 265.274 -490.95 200.341 -428.707C115.594 -347.47 26.9408 -272.818 73.7758 -166.77C131.002 -37.1491 183.496 62.5043 214.834 243.474C264.35 529.416 401.423 390.868 618.697 344.197C732.984 319.648 764.924 473.764 849.898 536.664M360.208 -659.846C327.978 -546.968 274.757 -467.706 208.532 -408.012C119.513 -327.75 26.3671 -255.384 82.1461 -149.014C150.024 -19.569 196.292 73.3299 231.741 258.103C283.081 525.83 411.778 401.851 618.495 362.522C726.798 341.917 758.75 487.043 839.828 548.035M368.154 -640.521C338.129 -523.389 284.144 -444.51 216.716 -387.302C123.338 -308.078 25.7506 -237.931 90.502 -131.264C168.988 -1.97493 208.914 84.1308 248.612 272.736C301.148 522.362 422.088 412.819 618.256 380.852C720.562 364.186 752.525 500.32 829.737 559.415M376.136 -621.2C348.412 -499.801 293.514 -421.387 224.922 -366.603C127.145 -288.512 25.1496 -220.44 98.8872 -113.504C187.968 15.6576 221.399 94.9373 265.52 287.364C318.645 519.026 432.398 423.754 618.054 399.177C714.354 386.43 746.337 513.593 819.66 570.799M384.089 -601.889C358.701 -476.227 302.811 -398.321 233.098 -345.912C130.826 -269.037 24.4976 -202.948 107.25 -95.7673C206.905 33.3103 233.629 105.745 282.42 301.974C335.57 515.788 442.677 434.645 617.844 417.482C708.117 408.631 740.155 526.852 809.583 582.15M392.056 -582.574C369.092 -452.653 312.099 -375.308 241.304 -325.212C134.497 -249.649 23.8678 -185.433 115.642 -78.0214C225.85 50.982 245.613 116.607 299.327 316.602C351.992 512.722 452.934 445.513 617.641 435.808C701.872 430.847 733.966 540.125 799.513 593.52M400.023 -563.258C379.548 -429.109 321.363 -352.353 249.495 -304.517C138.101 -230.367 23.2101 -167.893 124.012 -60.2661C244.781 68.6824 257.245 127.57 316.22 331.226C367.931 509.782 463.153 456.317 617.424 454.127C695.618 453.01 727.763 553.393 789.436 604.905M407.99 -543.942C390.04 -405.569 330.612 -329.471 257.686 -283.822C141.674 -211.196 22.567 -150.349 132.39 -42.5251C263.719 86.4023 268.459 138.666 333.135 345.84C383.445 506.988 473.371 467.054 617.229 472.438C689.364 475.138 721.595 566.656 779.374 616.26M415.958 -524.627C400.604 -382.039 339.852 -306.641 265.892 -263.122C145.235 -192.145 21.9244 -132.77 140.782 -24.7792C282.673 104.127 279.09 149.99 350.042 360.468C398.55 504.379 483.579 477.705 617.026 490.763C683.094 497.229 715.406 579.929 769.297 627.645M423.925 -505.311C411.211 -358.529 349.104 -283.874 274.083 -242.427C148.765 -173.205 21.2606 -115.182 149.152 -7.02389C301.591 121.89 288.947 161.665 366.949 375.097C413.296 501.922 493.792 488.239 616.824 509.087C676.838 519.256 709.218 593.202 759.227 639.015M431.892 -485.995C421.861 -335.038 358.363 -261.156 282.273 -221.731C152.262 -154.376 20.6109 -97.5888 157.529 10.7176C320.523 139.659 297.742 173.865 383.849 389.706C427.712 499.659 504.05 498.605 616.613 527.394C670.6 541.207 703.021 606.456 749.149 650.367M439.846 -466.65C432.555 -311.533 367.614 -238.457 290.466 -201.003C155.787 -135.639 19.9556 -79.9476 165.907 28.4924C339.457 157.461 304.97 186.943 400.742 404.364C441.846 497.671 514.408 508.869 616.397 545.748C664.406 563.104 696.833 619.763 739.073 661.785M447.798 -447.339C443.277 -288.086 376.906 -215.844 298.649 -180.327C159.307 -117.071 19.0876 -62.108 174.27 46.2286C358.143 175.534 309.845 201.381 417.642 418.973C455.775 495.935 524.949 518.89 616.187 564.053C658.295 584.895 690.637 633.016 728.996 673.136" stroke="url(#paint0_linear_871_7723)" stroke-miterlimit="10"/>
<defs>
<linearGradient id="paint0_linear_871_7723" x1="126.139" y1="-414.683" x2="505.451" y2="509.487" gradientUnits="userSpaceOnUse">
<stop stop-color="#0CCA4A"/>
<stop offset="1" stop-color="#6D5BF6"/>
</linearGradient>
</defs>
</svg>
