<svg width="23" height="23" viewBox="0 0 23 23" fill="none" xmlns="http://www.w3.org/2000/svg">
<path fill-rule="evenodd" clip-rule="evenodd" d="M0.882812 6.92002C0.882812 3.3437 3.78145 0.444824 7.357 0.444824H16.4764C20.0528 0.444824 22.9516 3.34346 22.9516 6.91901V16.0385C22.9516 19.6148 20.053 22.5136 16.4774 22.5136H7.358C3.78169 22.5136 0.882812 19.615 0.882812 16.0395V6.92002ZM7.357 2.45108C4.88971 2.45108 2.88907 4.45148 2.88907 6.92002V16.0395C2.88907 18.5067 4.88947 20.5074 7.358 20.5074H16.4774C18.9447 20.5074 20.9454 18.507 20.9454 16.0385V6.91901C20.9454 4.45172 18.945 2.45108 16.4764 2.45108H7.357ZM7.66265 7.22381C8.79139 6.09507 10.3223 5.46095 11.9186 5.46095C13.5148 5.46095 15.0457 6.09507 16.1745 7.22381C17.3032 8.35255 17.9373 9.88345 17.9373 11.4797C17.9373 13.076 17.3032 14.6069 16.1745 15.7356C15.0457 16.8644 13.5148 17.4985 11.9186 17.4985C10.3223 17.4985 8.79139 16.8644 7.66265 15.7356C6.53391 14.6069 5.89979 13.076 5.89979 11.4797C5.89979 9.88345 6.53391 8.35255 7.66265 7.22381ZM11.9186 7.46721C10.8544 7.46721 9.83378 7.88996 9.08129 8.64245C8.32879 9.39494 7.90605 10.4155 7.90605 11.4797C7.90605 12.5439 8.32879 13.5645 9.08129 14.317C9.83378 15.0695 10.8544 15.4922 11.9186 15.4922C12.9827 15.4922 14.0033 15.0695 14.7558 14.317C15.5083 13.5645 15.9311 12.5439 15.9311 11.4797C15.9311 10.4155 15.5083 9.39494 14.7558 8.64245C14.0033 7.88996 12.9827 7.46721 11.9186 7.46721ZM17.2013 4.90694C17.3723 4.73594 17.6042 4.63987 17.846 4.63987C18.0879 4.63987 18.3198 4.73594 18.4908 4.90694C18.6618 5.07794 18.7579 5.30988 18.7579 5.55171C18.7579 5.79355 18.6618 6.02548 18.4908 6.19648C18.3198 6.36749 18.0879 6.46355 17.846 6.46355C17.6042 6.46355 17.3723 6.36749 17.2013 6.19648C17.0303 6.02548 16.9342 5.79355 16.9342 5.55171C16.9342 5.30988 17.0303 5.07794 17.2013 4.90694Z" fill="white"/>
</svg>
