<svg width="24" height="23" viewBox="0 0 24 23" fill="none" xmlns="http://www.w3.org/2000/svg">
<path d="M5.41213 22.5136H0.396484V7.46672H5.41213V22.5136ZM2.90531 5.46046C1.51798 5.46046 0.396484 4.33596 0.396484 2.95164C0.396484 1.56732 1.51999 0.444824 2.90531 0.444824C4.28762 0.444824 5.41213 1.56933 5.41213 2.95164C5.41213 4.33596 4.28762 5.46046 2.90531 5.46046ZM23.4684 22.5136H18.6464V15.1908C18.6464 13.4444 18.6133 11.1984 16.1396 11.1984C13.6287 11.1984 13.2425 13.1003 13.2425 15.0644V22.5136H8.42151V7.45569H13.0499V9.5131H13.1151C13.7592 8.32941 15.3331 7.08152 17.6804 7.08152C22.5656 7.08152 23.4684 10.2002 23.4684 14.2549V22.5136Z" fill="white"/>
</svg>
