<?xml version="1.0" encoding="UTF-8"?>
<svg xmlns="http://www.w3.org/2000/svg" xmlns:xlink="http://www.w3.org/1999/xlink" width="160px" height="32px" viewBox="0 0 158 32" version="1.1">
  <defs>
    <linearGradient id="linear0" gradientUnits="userSpaceOnUse" x1="61" y1="117" x2="259" y2="127" gradientTransform="matrix(0.166667,0,0,0.167539,0,0)">
      <stop offset="0" style="stop-color:rgb(0%,39.215686%,88.235294%);stop-opacity:1;"></stop>
      <stop offset="0.4" style="stop-color:rgb(0%,39.215686%,88.235294%);stop-opacity:1;"></stop>
      <stop offset="0.83" style="stop-color:rgb(0%,45.098039%,93.333333%);stop-opacity:1;"></stop>
      <stop offset="1" style="stop-color:rgb(0%,50.980392%,98.431373%);stop-opacity:1;"></stop>
    </linearGradient>
    <linearGradient id="linear1" gradientUnits="userSpaceOnUse" x1="45" y1="139" x2="45" y2="66" gradientTransform="matrix(0.166667,0,0,0.167539,0,0)">
      <stop offset="0" style="stop-color:rgb(0%,50.980392%,98.431373%);stop-opacity:1;"></stop>
      <stop offset="1" style="stop-color:rgb(0%,39.215686%,87.843137%);stop-opacity:1;"></stop>
    </linearGradient>
  </defs>
  <g id="surface1">
    <path style=" stroke:none;fill-rule:nonzero;fill:rgb(0%,50.588235%,98.431373%);fill-opacity:1;" d="M 5.175781 21.101562 C 5.175781 22.941406 5.578125 24.355469 6.101562 25.210938 C 6.792969 26.328125 7.816406 26.804688 8.863281 26.804688 C 10.214844 26.804688 11.449219 26.464844 13.828125 23.15625 C 15.738281 20.503906 17.984375 16.78125 19.496094 14.449219 L 22.054688 10.496094 C 23.832031 7.75 25.890625 4.695312 28.25 2.628906 C 30.179688 0.9375 32.257812 0 34.347656 0 C 37.859375 0 41.203125 2.046875 43.765625 5.882812 C 46.566406 10.085938 47.925781 15.375 47.925781 20.839844 C 47.925781 24.085938 47.289062 26.472656 46.207031 28.355469 C 45.160156 30.179688 43.121094 32 39.6875 32 L 39.6875 26.804688 C 42.625 26.804688 43.359375 24.089844 43.359375 20.984375 C 43.359375 16.554688 42.332031 11.644531 40.070312 8.132812 C 38.464844 5.644531 36.386719 4.125 34.097656 4.125 C 31.625 4.125 29.632812 6 27.394531 9.34375 C 26.203125 11.121094 24.980469 13.289062 23.609375 15.734375 L 22.101562 18.421875 C 19.066406 23.828125 18.296875 25.058594 16.78125 27.09375 C 14.125 30.652344 11.851562 32 8.863281 32 C 5.320312 32 3.078125 30.457031 1.691406 28.132812 C 0.558594 26.238281 0 23.75 0 20.917969 Z M 5.175781 21.101562 "></path>
    <path style=" stroke:none;fill-rule:nonzero;fill:url(#linear0);" d="M 4.082031 6.25 C 6.453125 2.570312 9.878906 0 13.808594 0 C 16.082031 0 18.34375 0.675781 20.707031 2.617188 C 23.289062 4.734375 26.042969 8.222656 29.476562 13.976562 L 30.710938 16.039062 C 33.683594 21.019531 35.375 23.582031 36.363281 24.789062 C 37.636719 26.339844 38.53125 26.804688 39.6875 26.804688 C 42.625 26.804688 43.359375 24.089844 43.359375 20.984375 L 47.925781 20.839844 C 47.925781 24.085938 47.289062 26.472656 46.207031 28.355469 C 45.160156 30.179688 43.121094 32 39.6875 32 C 37.554688 32 35.664062 31.535156 33.574219 29.550781 C 31.96875 28.03125 30.089844 25.328125 28.644531 22.898438 L 24.347656 15.683594 C 22.191406 12.058594 20.210938 9.359375 19.066406 8.136719 C 17.835938 6.820312 16.25 5.230469 13.726562 5.230469 C 11.679688 5.230469 9.941406 6.675781 8.488281 8.882812 Z M 4.082031 6.25 "></path>
    <path style=" stroke:none;fill-rule:nonzero;fill:url(#linear1);" d="M 13.726562 5.230469 C 11.679688 5.230469 9.941406 6.675781 8.488281 8.882812 C 6.433594 12 5.175781 16.644531 5.175781 21.101562 C 5.175781 22.941406 5.578125 24.355469 6.101562 25.210938 L 1.691406 28.132812 C 0.558594 26.238281 0 23.75 0 20.917969 C 0 15.765625 1.40625 10.394531 4.082031 6.25 C 6.453125 2.570312 9.878906 0 13.808594 0 Z M 13.726562 5.230469 "></path>
    <path style=" stroke:none;fill-rule:nonzero;fill:rgb(9.803922%,15.686275%,18.823529%);fill-opacity:1;" d="M 57.988281 1.011719 L 63.976562 1.011719 L 74.160156 19.527344 L 84.34375 1.011719 L 90.203125 1.011719 L 90.203125 31.4375 L 85.316406 31.4375 L 85.316406 8.117188 L 76.386719 24.265625 L 71.804688 24.265625 L 62.875 8.117188 L 62.875 31.4375 L 57.988281 31.4375 Z M 105.507812 12.355469 C 102.003906 12.355469 99.894531 15.007812 99.390625 18.289062 L 111.28125 18.289062 C 111.035156 14.90625 109.09375 12.355469 105.507812 12.355469 Z M 94.546875 20.160156 C 94.546875 13.253906 98.988281 8.226562 105.59375 8.226562 C 112.089844 8.226562 115.972656 13.1875 115.972656 20.527344 L 115.972656 21.875 L 99.390625 21.875 C 99.976562 25.445312 102.335938 27.851562 106.136719 27.851562 C 109.167969 27.851562 111.0625 26.921875 112.859375 25.222656 L 115.453125 28.417969 C 113.007812 30.675781 109.898438 31.980469 105.960938 31.980469 C 98.808594 31.980469 94.546875 26.738281 94.546875 20.160156 Z M 121.894531 12.792969 L 117.398438 12.792969 L 117.398438 8.769531 L 121.894531 8.769531 L 121.894531 2.121094 L 126.609375 2.121094 L 126.609375 8.769531 L 133.441406 8.769531 L 133.441406 12.792969 L 126.609375 12.792969 L 126.609375 22.984375 C 126.609375 26.460938 127.714844 27.699219 130.433594 27.699219 C 131.675781 27.699219 132.386719 27.59375 133.441406 27.417969 L 133.441406 31.394531 C 132.128906 31.765625 130.878906 31.9375 129.527344 31.9375 C 124.4375 31.9375 121.894531 29.140625 121.894531 23.546875 Z M 153.285156 16.703125 C 152.339844 14.300781 150.226562 12.53125 147.125 12.53125 C 143.089844 12.53125 140.511719 15.40625 140.511719 20.09375 C 140.511719 24.660156 142.886719 27.675781 146.933594 27.675781 C 150.113281 27.675781 152.382812 25.816406 153.285156 23.503906 Z M 158 31.4375 L 153.375 31.4375 L 153.375 28.265625 C 152.078125 30.132812 149.726562 31.980469 145.914062 31.980469 C 139.785156 31.980469 135.6875 26.820312 135.6875 20.09375 C 135.6875 13.300781 139.882812 8.226562 146.175781 8.226562 C 149.285156 8.226562 151.726562 9.476562 153.375 11.683594 L 153.375 8.769531 L 158 8.769531 Z M 158 31.4375 "></path>
  </g>
</svg>
