<svg width="30" height="23" viewBox="0 0 30 23" fill="none" xmlns="http://www.w3.org/2000/svg">
<path d="M29.1913 4.28536C28.9217 2.74915 27.6411 1.6319 26.1584 1.28276C23.9342 0.793964 19.823 0.444824 15.3747 0.444824C10.9265 0.444824 6.74781 0.793964 4.52368 1.28276C3.04093 1.6319 1.76037 2.67932 1.49078 4.28536C1.22119 6.03106 0.951599 8.47504 0.951599 11.6173C0.951599 14.7596 1.22119 17.2035 1.55818 18.9492C1.82777 20.4854 3.10833 21.6027 4.59108 21.9518C6.95 22.4406 10.9939 22.7898 15.4421 22.7898C19.8904 22.7898 23.9342 22.4406 26.2932 21.9518C27.7759 21.6027 29.0565 20.5553 29.3261 18.9492C29.5956 17.2035 29.9326 14.6897 30 11.6173C29.8652 8.47504 29.5282 6.03106 29.1913 4.28536ZM11.7352 16.5053V6.72934L19.9578 11.6173L11.7352 16.5053Z" fill="white"/>
</svg>
